<?xml version="1.0" encoding="UTF-8"?>
<svg id="Layer_3" data-name="Layer 3" xmlns="http://www.w3.org/2000/svg" viewBox="0 0 136.97 160.41">
  <defs>
    <style>
      .cls-1 {
        fill: #89fa95;
      }

      .cls-2 {
        fill: none;
        stroke: #f5ebb8;
        stroke-linecap: round;
        stroke-linejoin: round;
        stroke-width: 5px;
      }
    </style>
  </defs>
  <path class="cls-1" d="m125.44,53.89h-.01s0,0-.01-.02l-12.82-14.31L79.14,2.2c-1.26-1.4-3.04-2.2-4.92-2.2h-11.47c-1.88,0-3.67.8-4.92,2.2L24.37,39.56l-12.84,14.33C4.24,64.77,0,77.85,0,91.93c0,37.82,30.66,68.48,68.48,68.48s68.49-30.66,68.49-68.48c0-14.08-4.25-27.16-11.53-38.04Zm-56.96,94.82c-31.35,0-56.78-25.42-56.78-56.78,0-14.63,5.54-27.97,14.63-38.04,10.39-11.51,25.43-18.74,42.15-18.74s31.76,7.23,42.15,18.74c9.09,10.07,14.63,23.41,14.63,38.04,0,31.36-25.42,56.78-56.78,56.78Z"/>
  <polygon class="cls-1" points="84.53 108.88 68.48 103.7 52.43 108.88 68.48 74.97 84.53 108.88"/>
  <path class="cls-2" d="m62.88,28.18v-14.51l11.21,14.51v-14.51"/>
</svg>