<?xml version="1.0" encoding="UTF-8"?>
<svg id="Layer_3" data-name="Layer 3" xmlns="http://www.w3.org/2000/svg" viewBox="0 0 136.97 160.41">
  <defs>
    <style>
      .cls-1 {
        fill: #231f20;
      }

      .cls-2 {
        fill: none;
        stroke: #fff;
        stroke-linecap: round;
        stroke-linejoin: round;
        stroke-width: 2px;
      }
    </style>
  </defs>
  <path class="cls-1" d="m11.53,106.52h.01s0,0,.01.02l12.82,14.31,33.46,37.36c1.26,1.4,3.04,2.2,4.92,2.2h11.47c1.88,0,3.67-.8,4.92-2.2l33.46-37.36,12.84-14.33c7.29-10.88,11.53-23.96,11.53-38.04C136.97,30.66,106.31,0,68.49,0,30.66,0,0,30.66,0,68.48c0,14.08,4.25,27.16,11.53,38.04ZM68.49,11.7c31.35,0,56.78,25.42,56.78,56.78,0,14.63-5.54,27.97-14.63,38.04-10.39,11.51-25.43,18.74-42.15,18.74-16.73,0-31.76-7.23-42.15-18.74-9.09-10.07-14.63-23.41-14.63-38.04,0-31.36,25.42-56.78,56.78-56.78Z"/>
  <polygon class="cls-1" points="52.44 51.52 68.49 56.7 84.53 51.52 68.49 85.44 52.44 51.52"/>
  <path class="cls-2" d="m74.09,132.23v14.51s-11.21-14.51-11.21-14.51v14.51"/>
</svg>